<svg xmlns="http://www.w3.org/2000/svg" width="34" height="47" viewBox="0 0 34 47">
  <g id="Group_19187" data-name="Group 19187" transform="translate(-31 -747)">
    <text id="Home" transform="translate(48 791)" fill="#1eaf28" font-size="12" font-family="Lato-Medium, Lato" font-weight="500"><tspan x="-16.05" y="0">Home</tspan></text>
    <path id="_005-home-1" data-name="005-home-1" d="M21.407,9.568l0,0L12.431.593a2.025,2.025,0,0,0-2.864,0L.6,9.562l-.009.009a2.024,2.024,0,0,0,1.348,3.451q.031,0,.062,0h.358v6.6A2.373,2.373,0,0,0,4.726,22H8.237a.645.645,0,0,0,.645-.645V16.177A1.083,1.083,0,0,1,9.963,15.1h2.071a1.083,1.083,0,0,1,1.081,1.081v5.178A.644.644,0,0,0,13.76,22h3.511a2.373,2.373,0,0,0,2.371-2.37v-6.6h.332a2.025,2.025,0,0,0,1.433-3.457Zm0,0" transform="translate(37 747.001)" fill="#1eaf28"/>
  </g>
</svg>
