<svg xmlns="http://www.w3.org/2000/svg" width="24.613" height="13.332" viewBox="0 0 24.613 13.332">
  <path id="Icon_material-group-add" data-name="Icon material-group-add" d="M8.2,12.628H5.128V9.551H3.077v3.077H0v2.051H3.077v3.077H5.128V14.679H8.2Zm10.255,1.026a3.077,3.077,0,1,0-.933-6.01,5.06,5.06,0,0,1,.923,2.933,5.16,5.16,0,0,1-.923,2.933A3.066,3.066,0,0,0,18.459,13.653Zm-5.128,0a3.077,3.077,0,1,0-3.077-3.077A3.064,3.064,0,0,0,13.332,13.653Zm6.789,2.215a3.794,3.794,0,0,1,1.415,2.912v2.051h3.077V18.781C24.613,17.2,22.182,16.227,20.121,15.868ZM13.332,15.7c-2.051,0-6.153,1.026-6.153,3.077v2.051H19.485V18.781C19.485,16.73,15.383,15.7,13.332,15.7Z" transform="translate(0 -7.5)" fill="#fff"/>
</svg>
