<svg xmlns="http://www.w3.org/2000/svg" xmlns:xlink="http://www.w3.org/1999/xlink" width="352.98" height="288.546" viewBox="0 0 352.98 288.546"><defs><linearGradient id="a" x1="1" x2="0" y2="1" gradientUnits="objectBoundingBox"><stop offset="0" stop-color="#ff8960"/><stop offset="1" stop-color="#ff62a5"/></linearGradient><linearGradient id="b" x1="1" x2="0" y2="1" gradientUnits="objectBoundingBox"><stop offset="0" stop-color="#ff404e"/><stop offset="1" stop-color="#ff62a5"/></linearGradient></defs><g transform="translate(1.065 1.461)"><path d="M0,0V3" transform="translate(10 131)" fill="none" stroke="#d2d8df" stroke-linecap="round" stroke-miterlimit="10" stroke-width="2.921"/><g transform="translate(0 132)"><path d="M0,0,2.451,2.524" transform="translate(3.262 0.625)" fill="none" stroke="#d2d8df" stroke-linecap="round" stroke-miterlimit="10" stroke-width="2.921"/><path d="M0,0H3.466" transform="translate(0.395 7.343)" fill="none" stroke="#d2d8df" stroke-linecap="round" stroke-miterlimit="10" stroke-width="2.921"/><path d="M0,2.524,2.451,0" transform="translate(2.982 11.657)" fill="none" stroke="#d2d8df" stroke-linecap="round" stroke-miterlimit="10" stroke-width="2.921"/></g><path d="M0,3V0" transform="translate(10 144)" fill="none" stroke="#d2d8df" stroke-linecap="round" stroke-miterlimit="10" stroke-width="2.921"/><path d="M2,2,0,0" transform="translate(13 143)" fill="none" stroke="#d2d8df" stroke-linecap="round" stroke-miterlimit="10" stroke-width="2.921"/><path d="M3,0H0" transform="translate(16 140)" fill="none" stroke="#d2d8df" stroke-linecap="round" stroke-miterlimit="10" stroke-width="2.921"/><path d="M2,0,0,2" transform="translate(15 133)" fill="none" stroke="#d2d8df" stroke-linecap="round" stroke-miterlimit="10" stroke-width="2.921"/><path d="M0,0V2" transform="translate(171)" fill="none" stroke="#d2d8df" stroke-linecap="round" stroke-miterlimit="10" stroke-width="2.921"/><path d="M0,0H2" transform="translate(165 6)" fill="none" stroke="#d2d8df" stroke-linecap="round" stroke-miterlimit="10" stroke-width="2.921"/><path d="M0,2V0" transform="translate(171 10)" fill="none" stroke="#d2d8df" stroke-linecap="round" stroke-miterlimit="10" stroke-width="2.921"/><path d="M2,0H0" transform="translate(174 6)" fill="none" stroke="#d2d8df" stroke-linecap="round" stroke-miterlimit="10" stroke-width="2.921"/><path d="M0,0V3" transform="translate(55 84)" fill="none" stroke="#d2d8df" stroke-linecap="round" stroke-miterlimit="10" stroke-width="2.921"/><path d="M0,0H3" transform="translate(46 93)" fill="none" stroke="#d2d8df" stroke-linecap="round" stroke-miterlimit="10" stroke-width="2.921"/><path d="M0,3V0" transform="translate(55 98)" fill="none" stroke="#d2d8df" stroke-linecap="round" stroke-miterlimit="10" stroke-width="2.921"/><path d="M3,0H0" transform="translate(60 93)" fill="none" stroke="#d2d8df" stroke-linecap="round" stroke-miterlimit="10" stroke-width="2.921"/><g transform="translate(26 27)"><path d="M4.328,0A4.329,4.329,0,1,1,0,4.329" transform="translate(239.926 166.039)" fill="none" stroke="#d2d8df" stroke-linecap="round" stroke-miterlimit="10" stroke-width="2.921"/><path d="M0,7.326C2.57,6.524,6.509,3.381,7.421,0c.827,2.989,4.293,6.524,7.421,6.792-3.521,1.247-6.887,4.95-7.421,7.859C7.057,11.686,2.4,7.758,0,7.326" transform="translate(264.062 119.437)" fill="#ebecee"/><path d="M0,3.663A6.307,6.307,0,0,0,3.71,0,5.071,5.071,0,0,0,7.42,3.4,6.169,6.169,0,0,0,3.71,7.325C3.528,5.842,1.2,3.878,0,3.663" transform="translate(0.273 161.043)" fill="#ebecee"/><path d="M6.712,3.357A3.356,3.356,0,1,1,3.356,0,3.356,3.356,0,0,1,6.712,3.357" transform="translate(17.413 22.24)" fill="#d1d8df"/><path d="M11.219,5.611A5.609,5.609,0,1,1,5.61,0a5.61,5.61,0,0,1,5.609,5.611" transform="translate(237 29)" fill="#ebecee"/><path d="M8.9,4.451A4.449,4.449,0,1,1,4.449,0,4.449,4.449,0,0,1,8.9,4.451" transform="translate(317.017 14.959)" fill="#ebecee"/><path d="M5.609,2.806A2.8,2.8,0,1,1,2.8,0,2.805,2.805,0,0,1,5.609,2.806Z" transform="translate(81.235 224.462)" fill="none" stroke="#d2d8df" stroke-linecap="round" stroke-miterlimit="10" stroke-width="2.921"/><path d="M6.712,3.357A3.356,3.356,0,1,1,3.356,0,3.356,3.356,0,0,1,6.712,3.357Z" transform="translate(78.463 0.675)" fill="none" stroke="#d2d8df" stroke-linecap="round" stroke-miterlimit="10" stroke-width="2.921"/><path d="M5.633,8.04A4.155,4.155,0,1,1,8.038,2.679,4.155,4.155,0,0,1,5.633,8.04Z" transform="translate(165.146 250.296)" fill="none" stroke="#d2d8df" stroke-linecap="round" stroke-miterlimit="10" stroke-width="2.921"/></g><g transform="translate(89 68)"><path d="M92.5,138h-82A10.545,10.545,0,0,1,0,127.47V10.527A10.543,10.543,0,0,1,10.5,0h82A10.543,10.543,0,0,1,103,10.527V127.47A10.545,10.545,0,0,1,92.5,138" transform="translate(14)" fill="#e0e2ee"/><path d="M92.5,138h-82A10.545,10.545,0,0,1,0,127.47V10.527A10.543,10.543,0,0,1,10.5,0h82A10.543,10.543,0,0,1,103,10.527V127.47A10.545,10.545,0,0,1,92.5,138" transform="translate(7 5)" fill="#e8ebf2"/><path d="M92.692,137.429H10.518A10.534,10.534,0,0,1,0,126.942V10.484A10.532,10.532,0,0,1,10.518,0H92.692a10.532,10.532,0,0,1,10.521,10.484V126.942a10.534,10.534,0,0,1-10.521,10.486" transform="translate(0 9.519)" fill="#d8dbea"/><path d="M92.692,137.429H10.518A10.534,10.534,0,0,1,0,126.942V10.484A10.532,10.532,0,0,1,10.518,0H92.692a10.532,10.532,0,0,1,10.521,10.484V126.942a10.534,10.534,0,0,1-10.521,10.486" transform="translate(0 9.519)" fill="#f1f2f7"/><path d="M63.848,6H3.152A3.088,3.088,0,0,1,0,3,3.088,3.088,0,0,1,3.152,0h60.7A3.088,3.088,0,0,1,67,3a3.088,3.088,0,0,1-3.152,3" transform="translate(17 39)" fill="#e0e2ee"/><path d="M63.848,6H3.152A3.088,3.088,0,0,1,0,3,3.088,3.088,0,0,1,3.152,0h60.7A3.088,3.088,0,0,1,67,3a3.088,3.088,0,0,1-3.152,3" transform="translate(17 57)" fill="#e0e2ee"/><path d="M63.848,6H3.152A3.088,3.088,0,0,1,0,3,3.09,3.09,0,0,1,3.152,0h60.7A3.09,3.09,0,0,1,67,3a3.088,3.088,0,0,1-3.152,3" transform="translate(17 75)" fill="#e0e2ee"/><path d="M63.848,6H3.152A3.088,3.088,0,0,1,0,3,3.088,3.088,0,0,1,3.152,0h60.7A3.088,3.088,0,0,1,67,3a3.088,3.088,0,0,1-3.152,3" transform="translate(17 93)" fill="#e0e2ee"/><path d="M34.834,6H3.166A3.1,3.1,0,0,1,0,3,3.1,3.1,0,0,1,3.166,0H34.834A3.1,3.1,0,0,1,38,3a3.1,3.1,0,0,1-3.166,3" transform="translate(17 111)" fill="#e0e2ee"/><g transform="translate(48 27)"><path d="M59.755,59.737a35.025,35.025,0,0,1-44.567,4.135,36.8,36.8,0,0,1-4.95-4.135A33.853,33.853,0,0,1,4.314,51.8,33.447,33.447,0,0,1,.644,41.679,35,35,0,0,1,41.694.636,34.611,34.611,0,0,1,51.82,4.305,35.187,35.187,0,0,1,57.258,8a33.277,33.277,0,0,1,2.474,2.254,34.895,34.895,0,0,1,.023,49.485" transform="translate(8 7)" fill="rgba(255,255,255,0.1)"/><path d="M41.507,83a41.457,41.457,0,1,1,33.315-16.73,41.913,41.913,0,0,1-3.966,4.577,42.4,42.4,0,0,1-4.576,3.968A41.43,41.43,0,0,1,41.508,83h0ZM41.5,9.183a32.2,32.2,0,1,0,12.158,2.365A32.21,32.21,0,0,0,41.5,9.183Z" fill="#e0e2ee"/><path d="M58.622,57.942l-.68.68a11.614,11.614,0,0,1-16.377,0L0,17.057,17.057,0,58.622,41.565a11.614,11.614,0,0,1,0,16.377" transform="translate(76 74)" fill="url(#a)"/><path d="M8.717,0,21,12.283,12.28,21,0,8.717A43.235,43.235,0,0,0,4.67,4.668,42.476,42.476,0,0,0,8.717,0" transform="translate(67 65)" fill="#e0e2ee"/><path d="M20,3.054,3.051,20,0,16.946,16.946,0Z" transform="translate(114 112)" fill="#ef545f"/><path d="M20,2.587,2.587,20,0,17.413,17.413,0Z" transform="translate(74 72)" fill="url(#b)"/><path d="M46,3.3,3.3,46A30.006,30.006,0,0,1,0,36.9L36.9,0A31.175,31.175,0,0,1,46,3.3" transform="translate(10 11)" fill="rgba(255,255,255,0.5)"/><path d="M53,6.448,6.833,50a34.317,34.317,0,0,1-4.694-3.7A30.516,30.516,0,0,1,0,44.087L46.729,0c.818.633,1.6,1.307,2.348,2.02A31.842,31.842,0,0,1,53,6.448" transform="translate(17 18)" fill="rgba(255,255,255,0.5)"/></g></g></g></svg>