<svg xmlns="http://www.w3.org/2000/svg" width="219.054" height="55.568" viewBox="0 0 219.054 55.568"><g transform="translate(-45 -40.521)"><text transform="translate(110.054 74.752)" fill="#f1f9ff" font-size="29" font-family="Helvetica"><tspan x="0" y="0">formsflow.ai</tspan></text><g transform="translate(45 46.461)" fill="none"><path d="M23.143.011c.641,0-.69-.1,0,0,.085,0-.335-.1,0,.227.431-.2.057.659,0,3.233-1.089.44-2.8.64-4.973,1.178a21.84,21.84,0,0,0-7.308,3.292c-4.531,3.18-7.7,9.553-7.7,13.891,0,4.616,3.2,10.779,8.726,14.519,3.943,2.667,9.367,3.029,12.56,4.33v2.972c.174.211.858,0-1.3,0C10.362,43.652,0,33.883,0,21.832S10.362.011,23.143.011Z" stroke="none"/><path d="M 22.97914505004883 -0.03468704223632812 C 23.12131309509277 -0.0346832275390625 23.56840515136719 0.01093673706054688 23.14664840698242 0.01117706298828125 C 23.17697906494141 0.01057052612304688 23.11767387390137 -0.007110595703125 23.0682430267334 -0.0005035400390625 C 22.91306114196777 -0.02587509155273438 22.91662979125977 -0.03469085693359375 22.97914505004883 -0.03468704223632812 Z M 23.0682430267334 -0.0005035400390625 C 23.09001350402832 0.003055572509765625 23.11493682861328 0.006946563720703125 23.14323234558105 0.01118087768554688 C 23.10578536987305 0.01118087768554688 23.06900215148926 0.011260986328125 23.03159713745117 0.0114288330078125 C 23.04165649414062 0.00501251220703125 23.0545711517334 0.001323699951171875 23.0682430267334 -0.0005035400390625 Z M 23.14664840698242 0.01117706298828125 C 23.14561653137207 0.011199951171875 23.14447593688965 0.01119613647460938 23.14323234558105 0.01118087768554688 C 23.14436721801758 0.01118087768554688 23.1455249786377 0.01117706298828125 23.14664840698242 0.01117706298828125 Z M 23.03159713745117 0.0114288330078125 C 22.99444198608398 0.03513336181640625 22.99630165100098 0.0961151123046875 23.14323234558105 0.2384796142578125 C 23.57458114624023 0.04021072387695312 23.20018196105957 0.8972587585449219 23.14323234558105 3.47100830078125 C 22.05446243286133 3.911228179931641 20.34267234802246 4.111370086669922 18.16976165771484 4.648830413818359 C 16.1521110534668 5.144828796386719 13.48354148864746 6.099208831787109 10.86130237579346 7.940769195556641 C 6.33026123046875 11.12062072753906 3.158941268920898 17.49332046508789 3.158941268920898 21.83173942565918 C 3.158941268920898 26.44733047485352 6.354581832885742 32.61113739013672 11.88544178009033 36.35036087036133 C 15.82854175567627 39.01765060424805 21.25243186950684 39.37918090820312 24.44504165649414 40.68064117431641 L 24.44504165649414 43.65229797363281 C 24.46195030212402 43.67276000976562 24.48363304138184 43.68924331665039 24.50707054138184 43.70234298706055 C 24.30306243896484 43.67789840698242 23.89569282531738 43.65229797363281 23.14323234558105 43.65229797363281 C 10.36158180236816 43.65229797363281 1.9073486328125e-06 33.88290023803711 1.9073486328125e-06 21.83173942565918 C 1.9073486328125e-06 9.815887451171875 10.30159950256348 0.06843948364257812 23.03159713745117 0.0114288330078125 Z M 24.50707054138184 43.70234298706055 C 24.83194160461426 43.74127578735352 24.6411190032959 43.77727508544922 24.50707054138184 43.70234298706055 Z" stroke="none" fill="#fff"/></g><path d="M8.208,22.643.354,14.612c-.472-.482-.472.483,0,0l3.418-3.495c.472-.483-.472-.483,0,0l5.291,5.41L20.395,4.939c.472-.482-.472-.482,0,0l3.89,3.495c.472.482,0-.483-.473,0L8.674,22.643C8.2,23.125,8.68,23.125,8.208,22.643Z" transform="translate(58.667 54.526)" fill="#fff"/><path d="M17.421,14,11.571,8.1a1.119,1.119,0,0,1,0-1.576,1.106,1.106,0,0,1,1.565,0l6.628,6.691a1.122,1.122,0,0,1,.032,1.539l-6.656,6.738a1.1,1.1,0,0,1-1.565,0,1.119,1.119,0,0,1,0-1.576Z" transform="translate(49.818 34.325)" fill="#fff"/><path d="M6.175,7.806.324,1.9a1.119,1.119,0,0,1,0-1.576,1.106,1.106,0,0,1,1.565,0L8.518,7.015A1.122,1.122,0,0,1,8.55,8.555L1.894,15.292a1.1,1.1,0,0,1-1.565,0,1.119,1.119,0,0,1,0-1.576Z" transform="matrix(-1, 0.017, -0.017, -1, 80.226, 95.935)" fill="#fff"/><g transform="translate(96.061 90.183) rotate(180)" fill="none"><path d="M23.143.046c.641,0-.69-.1,0,0,.085,0-.335-.1,0,.227.431-.2.057.659,0,3.233-1.089.44-2.8.64-4.973,1.178a21.84,21.84,0,0,0-7.308,3.292c-4.531,3.18-7.7,9.553-7.7,13.891,0,4.616,3.2,10.779,8.726,14.519,3.943,2.667,9.367,3.029,12.56,4.33v2.972c.174.211.858,0-1.3,0C10.362,43.687,0,33.918,0,21.866S10.362.046,23.143.046Z" stroke="none"/><path d="M 22.97914505004883 -3.814697265625e-06 C 23.12131309509277 0 23.56840515136719 0.04561996459960938 23.14664840698242 0.04586029052734375 C 23.17697906494141 0.045257568359375 23.11767387390137 0.027587890625 23.0682430267334 0.0341796875 C 22.91306114196777 0.008808135986328125 22.91662979125977 -7.62939453125e-06 22.97914505004883 -3.814697265625e-06 Z M 23.0682430267334 0.0341796875 C 23.09001350402832 0.03773880004882812 23.11493682861328 0.04162979125976562 23.14323234558105 0.04586410522460938 C 23.10578536987305 0.04586410522460938 23.06900215148926 0.0459442138671875 23.03159713745117 0.046112060546875 C 23.04165649414062 0.03969573974609375 23.0545711517334 0.03600692749023438 23.0682430267334 0.0341796875 Z M 23.14664840698242 0.04586029052734375 C 23.14561653137207 0.04588699340820312 23.14447593688965 0.0458831787109375 23.14323234558105 0.04586410522460938 C 23.14436721801758 0.04586410522460938 23.1455249786377 0.04586029052734375 23.14664840698242 0.04586029052734375 Z M 23.03159713745117 0.046112060546875 C 22.99444198608398 0.06981658935546875 22.99630165100098 0.13079833984375 23.14323234558105 0.273162841796875 C 23.57458114624023 0.074859619140625 23.20018196105957 0.9319419860839844 23.14323234558105 3.505702972412109 C 22.05446243286133 3.945911407470703 20.34267234802246 4.146053314208984 18.16976165771484 4.683513641357422 C 16.1521110534668 5.179512023925781 13.48354148864746 6.133903503417969 10.86130237579346 7.975452423095703 C 6.33026123046875 11.15530395507812 3.158941268920898 17.52800369262695 3.158941268920898 21.86642265319824 C 3.158941268920898 26.48202323913574 6.354581832885742 32.64583206176758 11.88544178009033 36.38505172729492 C 15.82854175567627 39.05233383178711 21.25243186950684 39.41386413574219 24.44504165649414 40.71532440185547 L 24.44504165649414 43.68698120117188 C 24.46195030212402 43.70744323730469 24.48363304138184 43.72392654418945 24.50707054138184 43.73702621459961 C 24.30306243896484 43.71258163452148 23.89569282531738 43.68698120117188 23.14323234558105 43.68698120117188 C 10.36158180236816 43.68698120117188 1.9073486328125e-06 33.91758346557617 1.9073486328125e-06 21.86642265319824 C 1.9073486328125e-06 9.850570678710938 10.30159950256348 0.1031227111816406 23.03159713745117 0.046112060546875 Z M 24.50707054138184 43.73702621459961 C 24.83194160461426 43.77595901489258 24.6411190032959 43.81195831298828 24.50707054138184 43.73702621459961 Z" stroke="none" fill="#fff"/></g></g></svg>