<svg xmlns="http://www.w3.org/2000/svg" xmlns:xlink="http://www.w3.org/1999/xlink" width="352.98" height="288.546" viewBox="0 0 352.98 288.546"><defs><linearGradient id="a" x1="1" x2="0" y2="1" gradientUnits="objectBoundingBox"><stop offset="0" stop-color="#ff8960"/><stop offset="1" stop-color="#ff62a5"/></linearGradient></defs><g transform="translate(1.065 1.461)"><path d="M0,0V3" transform="translate(10 131)" fill="none" stroke="#d2d8df" stroke-linecap="round" stroke-miterlimit="10" stroke-width="2.921"/><g transform="translate(0 132)"><path d="M0,0,2.451,2.524" transform="translate(3.262 0.625)" fill="none" stroke="#d2d8df" stroke-linecap="round" stroke-miterlimit="10" stroke-width="2.921"/><path d="M0,0H3.466" transform="translate(0.395 7.343)" fill="none" stroke="#d2d8df" stroke-linecap="round" stroke-miterlimit="10" stroke-width="2.921"/><path d="M0,2.524,2.451,0" transform="translate(2.982 11.657)" fill="none" stroke="#d2d8df" stroke-linecap="round" stroke-miterlimit="10" stroke-width="2.921"/></g><path d="M0,3V0" transform="translate(10 144)" fill="none" stroke="#d2d8df" stroke-linecap="round" stroke-miterlimit="10" stroke-width="2.921"/><path d="M2,2,0,0" transform="translate(13 143)" fill="none" stroke="#d2d8df" stroke-linecap="round" stroke-miterlimit="10" stroke-width="2.921"/><path d="M3,0H0" transform="translate(16 140)" fill="none" stroke="#d2d8df" stroke-linecap="round" stroke-miterlimit="10" stroke-width="2.921"/><path d="M2,0,0,2" transform="translate(15 133)" fill="none" stroke="#d2d8df" stroke-linecap="round" stroke-miterlimit="10" stroke-width="2.921"/><path d="M0,0V2" transform="translate(171)" fill="none" stroke="#d2d8df" stroke-linecap="round" stroke-miterlimit="10" stroke-width="2.921"/><path d="M0,0H2" transform="translate(165 6)" fill="none" stroke="#d2d8df" stroke-linecap="round" stroke-miterlimit="10" stroke-width="2.921"/><path d="M0,2V0" transform="translate(171 10)" fill="none" stroke="#d2d8df" stroke-linecap="round" stroke-miterlimit="10" stroke-width="2.921"/><path d="M2,0H0" transform="translate(174 6)" fill="none" stroke="#d2d8df" stroke-linecap="round" stroke-miterlimit="10" stroke-width="2.921"/><path d="M0,0V3" transform="translate(55 84)" fill="none" stroke="#d2d8df" stroke-linecap="round" stroke-miterlimit="10" stroke-width="2.921"/><path d="M0,0H3" transform="translate(46 93)" fill="none" stroke="#d2d8df" stroke-linecap="round" stroke-miterlimit="10" stroke-width="2.921"/><path d="M0,3V0" transform="translate(55 98)" fill="none" stroke="#d2d8df" stroke-linecap="round" stroke-miterlimit="10" stroke-width="2.921"/><path d="M3,0H0" transform="translate(60 93)" fill="none" stroke="#d2d8df" stroke-linecap="round" stroke-miterlimit="10" stroke-width="2.921"/><g transform="translate(26 27)"><path d="M4.328,0A4.329,4.329,0,1,1,0,4.329" transform="translate(239.926 166.039)" fill="none" stroke="#d2d8df" stroke-linecap="round" stroke-miterlimit="10" stroke-width="2.921"/><path d="M13.583,5.789A6.826,6.826,0,1,1,5.857,0" transform="translate(250.427 217.161)" fill="none" stroke="#d2d8df" stroke-linecap="round" stroke-miterlimit="10" stroke-width="2.921"/><path d="M0,7.326C2.57,6.524,6.509,3.381,7.421,0c.827,2.989,4.293,6.524,7.421,6.792-3.521,1.247-6.887,4.95-7.421,7.859C7.057,11.686,2.4,7.758,0,7.326" transform="translate(264.062 119.437)" fill="#ebecee"/><path d="M0,3.663A6.307,6.307,0,0,0,3.71,0,5.071,5.071,0,0,0,7.42,3.4,6.169,6.169,0,0,0,3.71,7.325C3.528,5.842,1.2,3.878,0,3.663" transform="translate(0.273 161.043)" fill="#ebecee"/><path d="M6.712,3.357A3.356,3.356,0,1,1,3.356,0,3.356,3.356,0,0,1,6.712,3.357" transform="translate(17.413 22.24)" fill="#d1d8df"/><path d="M11.219,5.611A5.609,5.609,0,1,1,5.61,0a5.61,5.61,0,0,1,5.609,5.611" transform="translate(211.087 230.747)" fill="#ebecee"/><path d="M8.9,4.451A4.449,4.449,0,1,1,4.449,0,4.449,4.449,0,0,1,8.9,4.451" transform="translate(317.017 14.959)" fill="#ebecee"/><path d="M5.609,2.806A2.8,2.8,0,1,1,2.8,0,2.805,2.805,0,0,1,5.609,2.806Z" transform="translate(81.235 224.462)" fill="none" stroke="#d2d8df" stroke-linecap="round" stroke-miterlimit="10" stroke-width="2.921"/><path d="M6.712,3.357A3.356,3.356,0,1,1,3.356,0,3.356,3.356,0,0,1,6.712,3.357Z" transform="translate(78.463 0.675)" fill="none" stroke="#d2d8df" stroke-linecap="round" stroke-miterlimit="10" stroke-width="2.921"/><path d="M5.633,8.04A4.155,4.155,0,1,1,8.038,2.679,4.155,4.155,0,0,1,5.633,8.04Z" transform="translate(165.146 250.296)" fill="none" stroke="#d2d8df" stroke-linecap="round" stroke-miterlimit="10" stroke-width="2.921"/></g><path d="M0,79.462H19.18L9.133,111.429l44.755-45.21H26.943L42.014,0Z" transform="translate(137.997 136.493)" fill="url(#a)"/><g transform="translate(59 58.922)"><path d="M193.731,57.4A38.016,38.016,0,0,0,177.5,50.8,57.393,57.393,0,0,0,75.265,22.051,36.915,36.915,0,0,0,26.915,52.5,38.264,38.264,0,0,0,38.08,127.308a24.75,24.75,0,0,0,3.31.231H166.507A38.259,38.259,0,0,0,193.731,57.4" transform="translate(0 0.078)" fill="#f1f2f7"/><path d="M49.37,2.805A38.673,38.673,0,0,0,34.821,0C15.587,0,0,13.729,0,30.662a27.075,27.075,0,0,0,.471,5.023C15.426,14.56,25.731,6.17,49.37,2.805" transform="translate(38 33)" fill="#e0e2ee"/></g></g></svg>